<svg width="640" height="480" viewBox="0 0 640 480" fill="none" xmlns="http://www.w3.org/2000/svg">
  <rect width="640" height="480" rx="48" fill="url(#paint0_linear)"/>
  <g filter="url(#filter0_d)">
    <path d="M160 168C160 152.536 172.536 140 188 140H356C371.464 140 384 152.536 384 168V248C384 263.464 371.464 276 356 276H188C172.536 276 160 263.464 160 248V168Z" fill="white"/>
    <path d="M188 160H356V184H188V160Z" fill="#4F46E5" fill-opacity="0.12"/>
    <rect x="212" y="212" width="96" height="16" rx="8" fill="#4F46E5" fill-opacity="0.6"/>
    <rect x="212" y="236" width="148" height="12" rx="6" fill="#4F46E5" fill-opacity="0.3"/>
    <circle cx="340" cy="224" r="20" fill="#0EA5E9" fill-opacity="0.2"/>
  </g>
  <g filter="url(#filter1_d)">
    <path d="M260 232C260 213.909 274.909 199 293 199H452C470.091 199 485 213.909 485 232V316C485 334.091 470.091 349 452 349H293C274.909 349 260 334.091 260 316V232Z" fill="white"/>
    <path d="M292 219H452V243H292V219Z" fill="#0EA5E9" fill-opacity="0.12"/>
    <rect x="316" y="271" width="112" height="18" rx="9" fill="#4F46E5" fill-opacity="0.5"/>
    <rect x="316" y="301" width="164" height="12" rx="6" fill="#4F46E5" fill-opacity="0.28"/>
    <circle cx="452" cy="287" r="22" fill="#4F46E5" fill-opacity="0.18"/>
  </g>
  <defs>
    <filter id="filter0_d" x="120" y="120" width="304" height="216" filterUnits="userSpaceOnUse" color-interpolation-filters="sRGB">
      <feFlood flood-opacity="0" result="BackgroundImageFix"/>
      <feColorMatrix in="SourceAlpha" type="matrix" values="0 0 0 0 0 0 0 0 0 0 0 0 0 0 0 0 0 0 127 0" result="hardAlpha"/>
      <feOffset dy="16"/>
      <feGaussianBlur stdDeviation="20"/>
      <feColorMatrix type="matrix" values="0 0 0 0 0.309804 0 0 0 0 0.27451 0 0 0 0 0.898039 0 0 0 0.16 0"/>
      <feBlend mode="normal" in2="BackgroundImageFix" result="effect1_dropShadow"/>
      <feBlend mode="normal" in="SourceGraphic" in2="effect1_dropShadow" result="shape"/>
    </filter>
    <filter id="filter1_d" x="220" y="179" width="305" height="230" filterUnits="userSpaceOnUse" color-interpolation-filters="sRGB">
      <feFlood flood-opacity="0" result="BackgroundImageFix"/>
      <feColorMatrix in="SourceAlpha" type="matrix" values="0 0 0 0 0 0 0 0 0 0 0 0 0 0 0 0 0 0 127 0" result="hardAlpha"/>
      <feOffset dy="18"/>
      <feGaussianBlur stdDeviation="22"/>
      <feColorMatrix type="matrix" values="0 0 0 0 0.0627451 0 0 0 0 0.372549 0 0 0 0 0.913725 0 0 0 0.14 0"/>
      <feBlend mode="normal" in2="BackgroundImageFix" result="effect1_dropShadow"/>
      <feBlend mode="normal" in="SourceGraphic" in2="effect1_dropShadow" result="shape"/>
    </filter>
    <linearGradient id="paint0_linear" x1="84" y1="52" x2="556" y2="428" gradientUnits="userSpaceOnUse">
      <stop stop-color="#EEF2FF"/>
      <stop offset="1" stop-color="#F0FDFF"/>
    </linearGradient>
  </defs>
</svg>
