<svg width="200" height="200" viewBox="0 0 200 200" fill="none" xmlns="http://www.w3.org/2000/svg" role="img" aria-labelledby="title desc">
  <title id="title">Chamedoon default user avatar</title>
  <desc id="desc">Minimal avatar with soft gradients and a clean silhouette.</desc>
  <defs>
    <linearGradient id="bg" x1="36" y1="24" x2="168" y2="182" gradientUnits="userSpaceOnUse">
      <stop offset="0" stop-color="#EEF2FF"/>
      <stop offset="1" stop-color="#D5F4FF"/>
    </linearGradient>
    <linearGradient id="ring" x1="60" y1="40" x2="140" y2="160" gradientUnits="userSpaceOnUse">
      <stop offset="0" stop-color="#4F46E5" stop-opacity="0.35"/>
      <stop offset="1" stop-color="#0EA5E9" stop-opacity="0.4"/>
    </linearGradient>
    <linearGradient id="line" x1="76" y1="92" x2="128" y2="140" gradientUnits="userSpaceOnUse">
      <stop stop-color="#4F46E5"/>
      <stop offset="1" stop-color="#0EA5E9"/>
    </linearGradient>
  </defs>
  <circle cx="100" cy="100" r="90" fill="url(#bg)"/>
  <circle cx="100" cy="100" r="82" stroke="url(#ring)" stroke-width="4" fill="none"/>
  <circle cx="100" cy="76" r="30" fill="#FFFFFF"/>
  <path d="M66 150c8-26 26.7-40 34-40h0c7.3 0 26 14 34 40" fill="#FFFFFF" stroke="url(#ring)" stroke-width="6" stroke-linecap="round" stroke-linejoin="round"/>
  <path d="M84 76c0-8.8 7.2-16 16-16h0c8.8 0 16 7.2 16 16" stroke="url(#line)" stroke-width="6" stroke-linecap="round"/>
  <path d="M86 104c6.5 8 15 12 24 12s17.5-4 24-12" stroke="url(#line)" stroke-width="6" stroke-linecap="round"/>
</svg>
