<svg xmlns="http://www.w3.org/2000/svg" viewBox="0 0 64 64" role="img" aria-label="Chamedoon">
  <defs>
    <linearGradient id="lightGradient" x1="11" y1="8" x2="54" y2="57" gradientUnits="userSpaceOnUse">
      <stop offset="0" stop-color="#4b36ff" />
      <stop offset="0.5" stop-color="#248bff" />
      <stop offset="1" stop-color="#12c6df" />
    </linearGradient>
    <radialGradient id="darkGradient" cx="35%" cy="28%" r="75%">
      <stop offset="0" stop-color="#293241" />
      <stop offset="0.55" stop-color="#171e29" />
      <stop offset="1" stop-color="#060b13" />
    </radialGradient>
    <style>
      .bg { fill: url(#lightGradient); }
      @media (prefers-color-scheme: dark) {
        .bg { fill: url(#darkGradient); }
      }
    </style>
  </defs>
  <rect class="bg" x="4" y="4" width="56" height="56" rx="13" />
  <g fill="none" stroke="#ffffff" stroke-width="3.2" stroke-linecap="round" stroke-linejoin="round">
    <path d="M21 39V27c0-4 3.2-7.2 7.2-7.2h8.8c4 0 7.2 3.2 7.2 7.2v3.8" />
    <path d="M27.2 19.8v-3.4c0-2.3 1.9-4.2 4.2-4.2h3.8c2.3 0 4.2 1.9 4.2 4.2v3.4" />
    <path d="M21 37.8c0 4.2 3.4 7.6 7.6 7.6h5" />
    <path d="M23.2 39.2l10 1 18-15.3c2.8-2.4 6.5-2.9 8.2-1.1 1.7 1.8.8 5.3-2.1 7.7L39 46.8c-1.6 1.3-3.6 1.9-5.7 1.7l-10.1-1.2" />
    <path d="M24.5 32l8.2 6.5" />
    <path d="M24.5 32l3.8-3.5 17.8 2.7" />
  </g>
</svg>
