<svg xmlns="http://www.w3.org/2000/svg" viewBox="0 0 64 64" role="img" aria-label="Chamedoon">
  <defs>
    <linearGradient id="lightGradient" x1="11" y1="8" x2="54" y2="57" gradientUnits="userSpaceOnUse">
      <stop offset="0" stop-color="#4b36ff" />
      <stop offset="0.5" stop-color="#248bff" />
      <stop offset="1" stop-color="#12c6df" />
    </linearGradient>
    <radialGradient id="darkGradient" cx="34%" cy="28%" r="72%">
      <stop offset="0" stop-color="#283241" />
      <stop offset="0.54" stop-color="#171e29" />
      <stop offset="1" stop-color="#070c14" />
    </radialGradient>
    <style>
      .bg { fill: url(#lightGradient); }
      @media (prefers-color-scheme: dark) {
        .bg { fill: url(#darkGradient); }
      }
    </style>
  </defs>
  <rect class="bg" x="4" y="4" width="56" height="56" rx="13" />
  <g fill="none" stroke="#ffffff" stroke-width="3.1" stroke-linecap="round" stroke-linejoin="round">
    <path d="M20.4 39.2V27c0-4 3.2-7.2 7.2-7.2h10c4 0 7.2 3.2 7.2 7.2v4" />
    <path d="M27.2 19.8v-3.5c0-2.3 1.9-4.2 4.2-4.2h3.8c2.3 0 4.2 1.9 4.2 4.2v3.5" />
    <path d="M20.4 38.7c0 4.5 3.7 8.2 8.2 8.2H34" />
    <path d="M23.5 31.5l9.1 7.2-5.9 5.6-6.3-.7" />
    <path d="M23.5 31.5l4.4-4 14.8 2.5 7.8-6c3.2-2.4 7.6-2.4 9.5.1 2 2.5.8 6.5-2.6 9.2L39.9 47.4c-1.7 1.4-3.9 2-6 1.7l-13.5-1.6" />
  </g>
</svg>
