<svg width="640" height="480" viewBox="0 0 640 480" fill="none" xmlns="http://www.w3.org/2000/svg" role="img" aria-labelledby="title desc">
  <title id="title">Chamedoon hero illustration</title>
  <desc id="desc">Clean dashboard scene with soft gradients and minimal lines.</desc>
  <defs>
    <linearGradient id="bg" x1="92" y1="40" x2="548" y2="420" gradientUnits="userSpaceOnUse">
      <stop offset="0" stop-color="#F8FAFC"/>
      <stop offset="1" stop-color="#ECFEFF"/>
    </linearGradient>
    <linearGradient id="accent" x1="180" y1="140" x2="480" y2="340" gradientUnits="userSpaceOnUse">
      <stop stop-color="#4F46E5" stop-opacity="0.12"/>
      <stop offset="1" stop-color="#0EA5E9" stop-opacity="0.18"/>
    </linearGradient>
    <linearGradient id="line" x1="240" y1="210" x2="420" y2="310" gradientUnits="userSpaceOnUse">
      <stop stop-color="#4F46E5"/>
      <stop offset="1" stop-color="#0EA5E9"/>
    </linearGradient>
  </defs>
  <rect x="36" y="28" width="568" height="424" rx="44" fill="url(#bg)" stroke="#E5E7EB" stroke-width="2"/>
  <rect x="108" y="116" width="424" height="252" rx="28" fill="#FFFFFF" stroke="#E5E7EB" stroke-width="2"/>
  <rect x="128" y="136" width="384" height="72" rx="18" fill="url(#accent)"/>
  <rect x="152" y="158" width="120" height="16" rx="8" fill="#0EA5E9" fill-opacity="0.18"/>
  <rect x="152" y="186" width="208" height="12" rx="6" fill="#4F46E5" fill-opacity="0.2"/>
  <rect x="176" y="238" width="176" height="16" rx="8" fill="#4F46E5" fill-opacity="0.18"/>
  <rect x="176" y="266" width="248" height="12" rx="6" fill="#0EA5E9" fill-opacity="0.16"/>
  <rect x="176" y="294" width="204" height="12" rx="6" fill="#4F46E5" fill-opacity="0.16"/>
  <circle cx="464" cy="248" r="34" fill="#0EA5E9" fill-opacity="0.1" stroke="#0EA5E9" stroke-width="2"/>
  <path d="M456 248h16M464 240v16" stroke="#0EA5E9" stroke-width="4" stroke-linecap="round"/>
  <circle cx="164" cy="106" r="10" fill="#22C55E" fill-opacity="0.18" stroke="#22C55E"/>
  <circle cx="196" cy="94" r="6" fill="#F59E0B" fill-opacity="0.22" stroke="#F59E0B"/>
  <circle cx="442" cy="102" r="8" fill="#0EA5E9" fill-opacity="0.2" stroke="#0EA5E9"/>
  <path d="M134 356h372" stroke="#E5E7EB" stroke-linecap="round"/>
  <path d="M210 210c10 12 28 12 36 0" stroke="url(#line)" stroke-width="4" stroke-linecap="round"/>
  <path d="M210 248c12 14 32 14 40 0" stroke="url(#line)" stroke-width="4" stroke-linecap="round"/>
  <path d="M210 286c14 16 38 16 48 0" stroke="url(#line)" stroke-width="4" stroke-linecap="round"/>
</svg>
