<svg width="640" height="480" viewBox="0 0 640 480" fill="none" xmlns="http://www.w3.org/2000/svg">
  <rect width="640" height="480" rx="32" fill="#F8FAFF"/>
  <linearGradient id="grad" x1="88" y1="72" x2="552" y2="400" gradientUnits="userSpaceOnUse">
    <stop stop-color="#6366F1" stop-opacity="0.14"/>
    <stop offset="1" stop-color="#0EA5E9" stop-opacity="0.14"/>
  </linearGradient>
  <rect x="56" y="48" width="528" height="384" rx="28" fill="url(#grad)"/>
  <path d="M110 192C178 150 246 140 314 168C382 196 450 196 518 168" stroke="#A5B4FC" stroke-width="6" stroke-linecap="round" stroke-dasharray="14 14"/>
  <path d="M110 240C182 268 254 270 326 246C398 222 470 224 542 252" stroke="#C7D2FE" stroke-width="6" stroke-linecap="round" stroke-dasharray="12 12"/>
  <path d="M118 296C188 312 258 306 328 278C398 250 468 246 538 266" stroke="#7DD3FC" stroke-width="6" stroke-linecap="round" stroke-dasharray="10 12"/>
  <g filter="url(#shadow)">
    <rect x="160" y="112" width="320" height="88" rx="18" fill="#fff"/>
    <rect x="176" y="128" width="96" height="12" rx="6" fill="#CBD5E1"/>
    <rect x="176" y="148" width="144" height="14" rx="7" fill="#E2E8F0"/>
    <rect x="176" y="170" width="88" height="10" rx="5" fill="#E2E8F0"/>
    <rect x="336" y="142" width="120" height="34" rx="10" fill="#EEF2FF" stroke="#C7D2FE" stroke-width="2"/>
    <path d="M424 164L440 150M440 150L456 164" stroke="#6366F1" stroke-width="3" stroke-linecap="round"/>
  </g>
  <g filter="url(#shadow)">
    <rect x="136" y="246" width="184" height="126" rx="16" fill="#0EA5E9" fill-opacity="0.06" stroke="#0EA5E9" stroke-opacity="0.2" stroke-width="2"/>
    <path d="M176 282L206 312L264 254" stroke="#0EA5E9" stroke-width="6" stroke-linecap="round" stroke-linejoin="round"/>
    <circle cx="176" cy="282" r="12" fill="#fff" stroke="#0EA5E9" stroke-width="4"/>
    <circle cx="206" cy="312" r="12" fill="#fff" stroke="#0EA5E9" stroke-width="4"/>
    <circle cx="264" cy="254" r="12" fill="#fff" stroke="#0EA5E9" stroke-width="4"/>
  </g>
  <g filter="url(#shadow)">
    <rect x="336" y="230" width="168" height="142" rx="16" fill="#fff"/>
    <rect x="356" y="250" width="96" height="12" rx="6" fill="#CBD5E1"/>
    <rect x="356" y="270" width="126" height="12" rx="6" fill="#E2E8F0"/>
    <rect x="356" y="292" width="84" height="10" rx="5" fill="#E2E8F0"/>
    <rect x="356" y="314" width="120" height="12" rx="6" fill="#E2E8F0"/>
    <rect x="356" y="336" width="88" height="12" rx="6" fill="#A5B4FC"/>
  </g>
  <circle cx="120" cy="136" r="12" fill="#6366F1" opacity="0.9"/>
  <circle cx="520" cy="192" r="10" fill="#0EA5E9" opacity="0.9"/>
  <circle cx="496" cy="120" r="8" fill="#22C55E" opacity="0.9"/>
  <path d="M292 356C292 334.118 309.118 317 331 317H372C393.882 317 411 334.118 411 356C411 377.882 393.882 395 372 395H331C309.118 395 292 377.882 292 356Z" fill="#1E293B" fill-opacity="0.9"/>
  <path d="M332 334H378L392 356L378 378H332L318 356L332 334Z" fill="#0EA5E9"/>
  <path d="M340 356H370" stroke="white" stroke-width="6" stroke-linecap="round"/>
  <defs>
    <filter id="shadow" x="104" y="84" width="432" height="312" filterUnits="userSpaceOnUse" color-interpolation-filters="sRGB">
      <feFlood flood-opacity="0" result="BackgroundImageFix"/>
      <feColorMatrix in="SourceAlpha" type="matrix" values="0 0 0 0 0 0 0 0 0 0 0 0 0 0 0 0 0 0 127 0" result="hardAlpha"/>
      <feOffset dy="12"/>
      <feGaussianBlur stdDeviation="18"/>
      <feColorMatrix type="matrix" values="0 0 0 0 0.08 0 0 0 0 0.12 0 0 0 0 0.22 0 0 0 0.2 0"/>
      <feBlend mode="normal" in2="BackgroundImageFix" result="effect1_dropShadow"/>
      <feBlend mode="normal" in="SourceGraphic" in2="effect1_dropShadow" result="shape"/>
    </filter>
  </defs>
</svg>
