<svg xmlns="http://www.w3.org/2000/svg" viewBox="0 0 256 256" role="img" aria-label="Chamedoon logo">
  <defs>
    <linearGradient id="chamedoonLightGradient" x1="48" y1="42" x2="208" y2="216" gradientUnits="userSpaceOnUse">
      <stop offset="0" stop-color="#4b36ff" />
      <stop offset="0.48" stop-color="#248bff" />
      <stop offset="1" stop-color="#12c6df" />
    </linearGradient>
  </defs>
  <rect x="36" y="36" width="184" height="184" rx="43" fill="url(#chamedoonLightGradient)" />
  <g fill="none" stroke="#ffffff" stroke-width="10" stroke-linecap="round" stroke-linejoin="round">
    <path d="M79 157v-50c0-14.9 12.1-27 27-27h50c14.9 0 27 12.1 27 27v17" />
    <path d="M106 80V66c0-9.4 7.6-17 17-17h17c9.4 0 17 7.6 17 17v14" />
    <path d="M79 155c0 18.2 14.8 33 33 33h22" />
    <path d="M91 127l37 29-24 23-25-3" />
    <path d="M91 127l18-16 59 10 31-24c12.6-9.7 30.1-9.4 37.9.6 7.8 10.1 2.8 26-10.5 36.7l-69.8 56.2c-6.7 5.4-15.3 7.8-23.9 6.7L79 191" />
  </g>
</svg>
