<svg width="1200" height="500" viewBox="0 0 1200 500" fill="none" xmlns="http://www.w3.org/2000/svg">
  <rect width="1200" height="500" fill="white"/>
  <g id="scene">
    <circle cx="930" cy="120" r="28" fill="#F5A524"/>
    <path d="M208 356C214 324 240 298 271 298H322C353 298 379 324 385 356H208Z" fill="#D6EAF8"/>
    <path d="M262 356C262 326 270 299 282 299C294 299 302 326 302 356H262Z" fill="#1D9BF0"/>
    <path d="M292 356C292 332 298 309 305 309C312 309 318 332 318 356H292Z" fill="#2D7FF9"/>
    <rect x="420" y="124" width="442" height="230" rx="18" fill="#EAF3FF" stroke="#A5B8D8" stroke-width="6"/>
    <rect x="420" y="124" width="442" height="60" rx="18" fill="#2D7FF9"/>
    <circle cx="452" cy="154" r="10" fill="#F5A524"/>
    <circle cx="482" cy="154" r="10" fill="#F5A524"/>
    <circle cx="512" cy="154" r="10" fill="#F5A524"/>
    <text x="510" y="310" text-anchor="middle" font-family="'Vazirmatn', 'Segoe UI', sans-serif" font-size="150" font-weight="700" fill="#2D7FF9" transform="translate(90 -12)">404</text>
    <rect x="540" y="312" width="204" height="28" rx="14" fill="#FBC02D" stroke="#F59E0B" stroke-width="6"/>
    <rect x="530" y="340" width="224" height="16" rx="8" fill="#1E293B" opacity="0.08"/>
    <path d="M540 312L560 280H584L564 312H540Z" fill="#FBC02D" stroke="#F59E0B" stroke-width="6"/>
    <path d="M744 312L724 280H700L720 312H744Z" fill="#FBC02D" stroke="#F59E0B" stroke-width="6"/>
    <circle cx="720" cy="356" r="14" fill="#D97706"/>
    <circle cx="548" cy="356" r="14" fill="#D97706"/>
    <path d="M395 360C398 337 411 318 428 318H474V360H395Z" fill="#0EA5E9"/>
    <path d="M474 360C472 337 483 320 498 320H516L506 362L474 360Z" fill="#2563EB"/>
    <path d="M468 204H514C538 204 552 226 545 248L528 301H474V234C474 217 479 204 468 204Z" fill="#0EA5E9"/>
    <path d="M470 186C470 172 481 160 495 160C511 160 524 173 524 189C524 203 514 213 500 213C483 213 470 201 470 186Z" fill="#F5A524"/>
    <path d="M472 182C478 185 487 187 495 187C503 187 510 185 517 182C514 170 505 162 495 162C485 162 476 169 472 182Z" fill="#0F172A" opacity="0.8"/>
    <rect x="518" y="244" width="18" height="64" rx="9" fill="#0F172A" opacity="0.55"/>
    <path d="M470 244H500C509 244 516 251 516 260V272H470V244Z" fill="#E0F2FE"/>
    <path d="M444 256C444 240 457 228 473 228H518V248H472C457 248 444 251 444 256Z" fill="#38BDF8"/>
    <circle cx="488" cy="188" r="6" fill="#0F172A"/>
    <path d="M492 209C494 213 498 216 504 216C511 216 516 211 516 204C516 197 511 192 504 192C495 192 489 200 492 209Z" stroke="#0F172A" stroke-width="4" stroke-linecap="round"/>
    <path d="M450 360H504C519 360 524 376 524 388H454C444 388 438 376 450 360Z" fill="#0F172A"/>
    <rect x="560" y="88" width="12" height="76" rx="6" fill="#BFDBFE"/>
    <rect x="690" y="88" width="12" height="76" rx="6" fill="#BFDBFE"/>
    <rect x="562" y="88" width="8" height="12" rx="4" fill="#475569"/>
    <rect x="692" y="88" width="8" height="12" rx="4" fill="#475569"/>
  </g>
</svg>
